<svg width="106.086853" height="30.720093" viewBox="0 0 106.087 30.7201" fill="none" xmlns="http://www.w3.org/2000/svg" xmlns:xlink="http://www.w3.org/1999/xlink">
	<desc>
			Created with Pixso.
	</desc>
	<defs/>
	<path id="Alivio" d="M37.88 5.72e-5L31.88 5.72e-5L31.88 30.24L37.88 30.24L37.88 5.72e-5ZM42.79 2.24C42.13 2.9 41.79 3.72 41.79 4.68C41.79 5.64 42.13 6.46 42.79 7.16C43.49 7.82 44.31 8.16 45.27 8.16C46.23 8.16 47.05 7.82 47.71 7.16C48.41 6.46 48.75 5.64 48.75 4.68C48.75 3.72 48.41 2.9 47.71 2.24C47.05 1.54 46.23 1.2 45.27 1.2C44.31 1.2 43.49 1.54 42.79 2.24ZM75.41 2.24C74.74 2.9 74.41 3.72 74.41 4.68C74.41 5.64 74.74 6.46 75.41 7.16C76.1 7.82 76.93 8.16 77.89 8.16C78.85 8.16 79.66 7.82 80.33 7.16C81.02 6.46 81.37 5.64 81.37 4.68C81.37 3.72 81.02 2.9 80.33 2.24C79.66 1.54 78.85 1.2 77.89 1.2C76.93 1.2 76.1 1.54 75.41 2.24ZM17.4 1.92L12.24 1.92L-2.2e-5 30.24L6.87 30.24L9.23 24.24L20.24 24.24L22.68 30.24L29.72 30.24L17.4 1.92ZM11.2 18.96L14.64 10.16L18.12 18.96L11.2 18.96ZM85.32 16.32Q84.48 18.2 84.48 20.52C84.48 22.06 84.76 23.46 85.32 24.72C85.88 25.97 86.64 27.05 87.6 27.96C88.59 28.84 89.74 29.52 91.04 30C92.38 30.48 93.79 30.72 95.28 30.72C96.78 30.72 98.18 30.48 99.48 30C100.82 29.52 101.96 28.84 102.92 27.96C103.91 27.05 104.68 25.97 105.24 24.72C105.8 23.46 106.08 22.06 106.08 20.52Q106.08 18.2 105.24 16.32C104.68 15.06 103.91 14 102.92 13.12C101.96 12.21 100.82 11.52 99.48 11.04C98.18 10.56 96.78 10.32 95.28 10.32C93.79 10.32 92.38 10.56 91.04 11.04C89.74 11.52 88.59 12.21 87.6 13.12C86.64 14 85.88 15.06 85.32 16.32ZM48.27 10.8L42.27 10.8L42.27 30.24L48.27 30.24L48.27 10.8ZM57.02 10.8L50.54 10.8L58.58 30.24L64.94 30.24L72.62 10.8L66.58 10.8L62.02 24L61.94 24L57.02 10.8ZM80.89 10.8L74.89 10.8L74.89 30.24L80.89 30.24L80.89 10.8ZM91.72 24.08C90.9 23.17 90.48 21.98 90.48 20.52C90.48 19.05 90.9 17.86 91.72 16.96C92.58 16.05 93.76 15.6 95.28 15.6C96.8 15.6 97.98 16.05 98.8 16.96Q99.07 17.24 99.29 17.57Q100.08 18.78 100.08 20.52Q100.08 22.25 99.29 23.46Q99.07 23.79 98.8 24.08C97.98 24.98 96.8 25.44 95.28 25.44C93.76 25.44 92.58 24.98 91.72 24.08Z" fill="#FFFFFF" fill-opacity="1.000000" fill-rule="evenodd"/>
</svg>
